<?xml version="1.0" encoding="utf-8" ?>
<svg xmlns="http://www.w3.org/2000/svg" xmlns:xlink="http://www.w3.org/1999/xlink" width="933" height="933">
	<path fill="#0E5B4C" transform="scale(1.45837 1.45837)" d="M85.3178 410.227C89.5145 393.082 109.166 378.137 113.385 360.459C115.612 351.125 105.101 348.549 98.849 345.627C81.5134 337.527 72.9272 316.385 67.2704 299.444C49.2492 245.472 48.8324 174.018 103.879 141.408C136.382 122.153 190.216 123.943 228.322 123.918C265.521 123.892 339.376 122.143 361.707 160.015C364.107 163.148 366.292 166.665 368.322 170.049C381.862 186.77 383.116 222.231 378.67 243.619C398.482 235.863 439.555 238.025 461.426 237.625C476.675 237.347 490.513 235.19 505.784 237.708C591.722 251.878 582.731 340.726 571.449 408.081C568.064 428.291 562.3 445.55 543.389 456.106C537.63 459.321 531.014 461.302 525.662 465.174L525.222 465.495C528.396 482.51 547.284 508.73 547.382 516.494C547.519 527.359 536.848 530.333 527.764 530.36C485.93 530.486 463.987 503.141 428.658 491.006C411.847 485.232 393.694 484.24 376.222 481.638C329.625 474.696 268.281 453.386 258.826 400.294C257.507 392.89 257.578 385.316 257.567 377.826C244.507 380.293 221.462 380.83 208.272 381.049C174.521 381.609 183.519 377.933 158.132 400.534C142.368 414.568 116.186 430.965 94.6415 420.108C90.2275 417.883 86.9271 415.012 85.3178 410.227ZM485.275 256.688C449.803 259.714 420.413 262.256 384.059 259.374C348.59 256.563 317.57 253.929 291.27 285.264C278.01 301.062 277.103 312.191 272.81 330.36C262.852 372.496 251.435 411.922 290.596 444.383C310.948 461.252 346.088 463.09 371.654 465.525C390.03 468.207 431.309 465.921 445.276 473.818C453.903 478.695 459.471 486.618 467.107 492.62C477.627 500.891 504.873 509.793 516.602 507.817C520.639 504.746 495.577 469.409 512.842 454.221C516.346 451.138 520.916 449.536 524.169 446.179C535.224 434.772 543.565 408.765 544.642 393.748C545.448 382.517 544.67 370.268 544.669 358.91C544.665 308.659 551.443 253.458 485.275 256.688ZM116.931 335.674C123.658 338.134 130.743 345.283 133.739 351.741C145.057 376.133 101.236 405.21 111.828 412.514C121.968 415.075 141.117 407.018 150.14 401.645C160.592 395.421 164.783 382.871 174.245 375.41C185.029 366.907 201.002 370.229 213.702 369.69C229.141 369.036 243.599 367.405 258.907 365.705C262.249 353.169 264.286 340.427 268.143 327.955C269.041 325.052 271.125 322.701 272.058 319.865C274.044 313.835 275.254 307.535 277.339 301.536C288.314 269.968 314.443 251.07 346.966 246.917C352.643 246.192 358.372 245.962 364.034 245.135C363.204 222.061 371.91 190.534 365.128 172.161C364.817 171.101 364.373 170.28 363.807 169.334C362.017 167.194 359.973 164.97 358.741 162.449C325.955 128.457 237.563 136.748 193.561 141.006C129.994 147.157 98.5804 167.457 97.8213 236.44C97.5101 264.724 100.652 276.876 108.672 302.661C112.015 313.407 114.969 324.59 116.931 335.674Z"/>
	<path fill="#35927E" transform="scale(1.45837 1.45837)" d="M361.707 160.015C364.107 163.148 366.292 166.665 368.322 170.049C366.883 169.289 365.959 167.874 364.954 166.626C365.227 168.472 365.671 170.335 365.128 172.161C364.817 171.101 364.373 170.28 363.807 169.334C362.017 167.194 359.973 164.97 358.741 162.449L359.383 162.301C361.923 162.106 362.647 163.516 361.707 160.015Z"/>
	<path fill="#87BFA4" transform="scale(1.45837 1.45837)" d="M358.741 162.449L359.383 162.301C362.253 164.228 364.933 165.57 363.807 169.334C362.017 167.194 359.973 164.97 358.741 162.449Z"/>
	<path fill="#0E5B4C" transform="scale(1.45837 1.45837)" d="M304.455 183.494C312.688 182.42 310.473 188.849 307.34 193.446C299.785 204.53 290.929 214.854 283.084 225.768C269.382 244.828 257.744 262.741 242.981 281.514C232.294 295.104 219.868 314.209 200.216 312.588C184.21 311.268 162.763 282.543 151.962 269.857C146.04 262.778 133.65 249.648 136.88 239.403C140.397 228.246 157.303 230.058 165.777 232.838C179.789 237.435 195.554 250.378 202.223 263.626C222.795 238.134 252.081 217.218 278.943 199.078C287.081 193.582 295.427 187.452 304.455 183.494Z"/>
	<path fill="#0E5B4C" transform="scale(1.45837 1.45837)" d="M469.133 304.831C487.395 304.714 502.061 317.712 504.71 335.764C509.918 371.257 458.812 430.032 425.199 434.922C411.902 436.857 400.891 431.211 390.505 423.446C376.015 411.664 361.481 392.429 356.566 374.507C347.277 340.637 395.192 314.764 417.282 343.198C428.947 323.467 444.617 306.388 469.133 304.831ZM373.84 397.24C370.867 386.213 369.292 374.374 372.726 363.221C377.122 348.942 392.936 338.404 407.819 343.027C393.432 328.269 361.408 341.667 361.057 364.25C360.889 375.088 366.949 388.951 373.84 397.24ZM421.157 346.801C422.296 347.76 423.037 348.377 424.509 348.703C426.094 346.399 429.264 344.373 431.487 342.585C446.848 330.227 467.537 312.357 488.81 318.63C466.98 297.415 433.263 325.381 421.157 346.801Z"/>
	<path fill="#F60" transform="scale(1.45837 1.45837)" d="M424.509 348.703C426.094 346.399 429.264 344.373 431.487 342.585C446.848 330.227 467.537 312.357 488.81 318.63C525.08 344.044 463.643 422.521 427.619 428.756C406.694 432.378 383.011 414.974 373.84 397.24C370.867 386.213 369.292 374.374 372.726 363.221C377.122 348.942 392.936 338.404 407.819 343.027C410.389 345.438 421.086 356.013 424.737 349.368L424.509 348.703Z"/>
</svg>
