<?xml version="1.0" encoding="utf-8" ?>
<svg xmlns="http://www.w3.org/2000/svg" xmlns:xlink="http://www.w3.org/1999/xlink" width="933" height="933">
	<path fill="#EF6C01" transform="scale(0.911483 0.911483)" d="M536.33 236.36C540.833 238.488 538.989 242.157 541.793 244.985C543.139 246.342 545.259 246.992 546.795 248.148C547.667 248.804 547.884 248.819 548.038 249.938C546.288 251.923 543.534 253.19 541.273 254.537C540.202 258.424 539.05 261.96 537.244 265.576C534.381 262.534 532.859 259.109 531.861 255.111C529.612 254.431 527.686 254.098 526.238 252.158C526.011 248.422 530.852 245.105 532.935 242.301C534.272 240.5 535.288 238.345 536.33 236.36Z"/>
	<path fill="#EF6C01" transform="scale(0.911483 0.911483)" d="M648.193 217.728C651.428 220.359 650.67 225.807 653.868 228.035C656.004 229.523 659.034 230.003 661.358 231.252C662.325 231.771 662.538 231.753 662.85 232.844C661.064 235.689 655.994 237.336 653.058 238.689L648.684 246.804C648.274 247.355 647.905 247.34 647.271 247.557C644.573 246.336 643.124 241.989 641.894 239.452C639.954 238.532 636.933 237.487 635.76 235.646C635.285 234.899 635.549 234.566 635.695 233.757C637.13 231.874 639.378 230.88 641.407 229.732C643.43 225.649 645.366 221.319 648.193 217.728Z"/>
	<path fill="#EF6C01" transform="scale(0.911483 0.911483)" d="M97.4336 575.26C100.283 577.618 102.144 580.948 104.808 583.547C107.738 584.25 113.331 584.901 115.211 587.488C114.562 591 110.956 591.96 108.55 594.205C106.344 596.263 107.016 599.282 106.794 601.951C106.657 603.585 105.337 604.652 104.207 605.688C100.393 604.207 97.9075 599.791 95.2024 596.799C93.0887 596.308 89.2002 595.614 87.6799 593.971C87.1588 593.407 86.8403 592.799 86.9855 592.04C87.4814 589.444 90.9905 587.685 93.0323 586.317C94.8074 582.777 95.6475 578.842 97.4336 575.26Z"/>
	<path fill="#EF6C01" transform="scale(0.911483 0.911483)" d="M241.412 360.525C244.929 362.532 246.844 365.727 249.135 368.958C251.621 369.676 254.485 370.28 256.765 371.506C258.085 372.216 258.986 372.986 259.417 374.472C258.807 378.065 253.329 381.446 250.758 384.002C250.202 387.255 249.471 390.479 248.782 393.706C243.84 392.945 242.689 388.058 240.037 384.488L239.654 383.98C236.919 382.649 232.611 382.008 231.057 379.159C231.561 375.64 235.963 372.908 237.782 369.859C239.473 367.025 239.653 363.47 241.412 360.525Z"/>
	<path fill="#EF6C01" transform="scale(0.911483 0.911483)" d="M875.336 513.319C880.492 513.609 879.9 519.167 882.63 522.306C884.015 523.898 887.491 524.865 889.454 525.909C890.938 526.698 891.634 527.323 892.099 528.935C890.097 532.082 885.829 533.395 883.449 536.225C880.225 540.061 881.682 545.145 877.242 548.704C873.533 546.045 871.656 541.866 869.538 537.952C865.99 536.325 862.444 534.885 859.036 532.964C861.818 529.484 865.716 527.589 868.677 524.352C871.379 521.398 872.712 517.221 874.957 513.875L875.336 513.319Z"/>
	<path fill="#EF6C01" transform="scale(0.911483 0.911483)" d="M898.558 425.729C901.988 428.156 904.299 434.409 906.151 438.104Q906.851 438.278 907.548 438.459C910.658 439.273 915.233 439.973 916.972 442.925C916.799 447.833 909.093 449.497 906.571 453.261C904.068 456.996 904.736 462.143 902.098 466.023C898.158 462.134 896.763 456.277 894.362 451.38C890.633 450.437 885.826 450.417 882.88 447.679C882.391 445.267 886.837 442.914 888.622 441.577C894.189 437.404 895.018 431.377 898.558 425.729Z"/>
	<path fill="#EF6C01" transform="scale(0.911483 0.911483)" d="M745.45 240.134C745.629 240.192 745.813 240.234 745.986 240.308C750.531 242.234 748.155 249.952 751.071 253.24C754.141 256.701 763.146 257.61 764.812 261.465C764.209 264.52 759.115 265.942 756.778 267.565C751.822 271.009 749.612 277.515 745.982 282.196C745.093 282.485 745.466 282.47 744.52 282.34C740.036 281.724 739.953 272.731 737.274 269.912C735.159 267.687 731.042 267.494 728.41 265.927C727.338 265.289 726.879 264.715 726.508 263.556C728.305 259.199 734.772 258.239 737.594 254.59C737.735 254.407 737.863 254.215 737.999 254.029C741.053 249.851 742.987 244.701 745.45 240.134Z"/>
	<path fill="#EF6C01" transform="scale(0.911483 0.911483)" d="M918.306 593.237C923.901 595.952 923.575 602.502 926.48 607.266C929.575 612.341 935.9 612.504 941.175 613.83C943.626 614.447 946.542 615.177 947.894 617.493C947.787 618.91 947.617 619.389 946.451 620.352C942.915 623.274 938.222 624.375 934.661 627.411C928.761 632.441 928.406 640.615 924.09 646.797C917.123 643.496 916.847 635.782 911.539 631.048C907.665 627.593 900.921 626.937 896.43 624.153C895.167 623.37 894.475 622.758 894.149 621.301C897.925 617.922 903.892 616.441 907.161 612.674C912.147 606.929 912.639 599.21 918.306 593.237Z"/>
	<path fill="#EF6C01" transform="scale(0.911483 0.911483)" d="M121.336 420.48C121.69 420.64 122.045 420.799 122.391 420.975C128.596 424.113 131.327 437.74 136.945 443.304C141.426 447.743 149.589 447.343 154.569 451.392C155.466 452.121 156.317 453.276 156.312 454.47C156.29 459.615 143.942 466.022 140.782 470.608C136.53 476.779 138.867 486.707 133.43 492.295C131.755 494.016 130.246 494.073 127.976 494.11C122.083 488.201 118.443 475.446 113.51 472.25C108.194 468.807 101.367 468.309 95.8734 465.129C94.1558 464.135 92.9667 463.196 92.4769 461.183C92.7233 459.49 93.6264 458.443 94.8593 457.317C99.8495 452.76 107.083 450.516 111.548 445.341C117.347 438.618 114.676 428.036 121.336 420.48Z"/>
	<path fill="#EF6C01" transform="scale(0.911483 0.911483)" d="M152.059 274.685C162.091 277.954 162.772 292.502 169.779 299.647C174.735 304.702 188.459 304.124 191.449 309.512C195.131 316.148 179.611 322.724 175.829 326.513C170.542 331.811 171.56 341.619 169.513 348.318C168.414 351.913 166.852 353.868 163.587 355.665C154.6 350.821 154.43 339.528 147.231 333.178C141.712 328.31 132.374 328.566 126.11 324.571C124.323 323.432 123.442 322.342 122.985 320.285C124.139 312.904 137.734 310.995 141.704 304.851C147.625 295.685 144.18 282.954 152.059 274.685Z"/>
	<path fill="#EF6C01" transform="scale(0.911483 0.911483)" d="M824.933 327.334C825.13 327.393 825.329 327.447 825.524 327.513C835.891 330.97 833.084 347.575 839.582 354.98C844.683 360.792 862.345 363.282 864.235 369.448C865.827 374.641 848.197 383.245 844.482 386.211C838.089 391.314 839.854 400.793 836.209 407.381C834.717 410.078 833.101 411.09 830.202 411.948C822.964 405.7 820.892 395.865 813.796 389.575C807.621 384.101 798.295 384.037 791.94 378.9C790.828 378.001 789.728 376.788 789.785 375.262C790.041 368.385 806.776 363.391 811.062 358.038C818.38 348.896 814.546 335.857 824.933 327.334Z"/>
	<path fill="#EF6C01" transform="scale(0.911483 0.911483)" d="M788.965 553.78C818.543 576.98 862.044 605.953 880.104 639.296Q881.69 642.293 883.001 645.42Q884.312 648.547 885.337 651.78Q886.361 655.012 887.092 658.323Q887.822 661.635 888.252 664.998Q888.402 666.184 888.522 667.373Q888.643 668.562 888.734 669.754Q888.825 670.945 888.887 672.139Q888.949 673.332 888.982 674.527Q889.014 675.722 889.018 676.917Q889.021 678.112 888.995 679.307Q888.968 680.502 888.913 681.696Q888.857 682.89 888.772 684.082Q888.687 685.274 888.573 686.464Q888.459 687.653 888.315 688.84Q888.172 690.026 887.999 691.209Q887.827 692.392 887.625 693.57Q887.423 694.748 887.193 695.92Q886.962 697.093 886.703 698.26Q886.443 699.427 886.155 700.587Q885.868 701.747 885.551 702.899Q885.235 704.052 884.89 705.196Q884.545 706.34 884.173 707.476Q883.8 708.612 883.4 709.738Q882.999 710.864 882.571 711.98Q882.143 713.095 881.688 714.2Q881.232 715.306 880.75 716.399Q880.267 717.492 879.758 718.574Q879.249 719.655 878.714 720.723Q878.178 721.792 877.616 722.847Q877.054 723.902 876.467 724.943Q875.88 725.983 875.267 727.009Q874.654 728.035 874.016 729.046Q873.378 730.057 872.715 731.051Q872.052 732.046 871.366 733.024Q870.679 734.002 869.968 734.963Q869.257 735.924 868.523 736.867C866.434 739.537 864.134 742.384 861.645 744.685C859.303 728.412 857.202 712.148 853.969 696.014C846.128 656.881 836.647 611.574 808.487 581.488C802.314 574.894 795.337 569.524 787.849 564.537C788.294 560.962 788.608 557.365 788.965 553.78Z"/>
	<path fill="#EF6C01" transform="scale(0.911483 0.911483)" d="M124.611 718.934C117.205 713.298 110.126 705.043 105.299 697.15C97.9034 685.059 96.9273 671.342 100.204 657.736C111.009 612.864 151.118 574.223 189.355 551.017C183.839 575.025 180.982 601.177 183.402 625.765C179.647 628.58 176.156 631.278 173.161 634.912C166.14 643.433 161.985 654.597 157.32 664.52Q152.896 673.754 147.87 682.674C140.847 695.254 132.817 707.11 124.611 718.934Z"/>
	<path fill="#FEFEFE" transform="scale(0.911483 0.911483)" d="M154.915 616.991C155.716 617.327 156.935 617.872 157.543 618.48C158.144 619.081 158.508 619.674 158.561 620.519C158.705 622.795 157.18 624.084 155.709 625.577C154.018 624.276 152.584 623.299 152.267 621.059C152.67 619.28 153.71 618.309 154.915 616.991Z"/>
	<path fill="#026850" transform="scale(0.911483 0.911483)" d="M351.941 444.82C349.714 441.733 346.867 439.003 344.431 436.063C339.034 429.552 334.172 422.595 330.34 415.042C325.396 405.298 321.79 394.557 319.282 383.918C317.08 374.58 315.535 365.438 311.751 356.533C308.523 348.939 304.991 340.964 300.55 334.003C294.404 324.369 288.537 318.23 284.548 307.121C281.119 297.569 278.918 287.045 279.471 276.853C280.438 259.053 296.096 239.568 308.853 228.286C331.25 208.478 380.242 191.762 410.255 193.666C425.635 194.642 436.845 201.158 446.916 212.598C450.425 212.721 453.744 213.136 457.062 214.312C468.556 218.387 476.755 229.393 481.727 240.062C491.478 260.985 493.62 289.374 485.701 311.17C486.237 311.771 486.761 312.365 487.251 313.006C493.89 321.696 494.482 333.791 493.019 344.222C491.221 357.045 486.628 366.732 476.246 374.604C479.461 390.436 480.258 406.721 483.666 422.587C498.562 424.342 512.904 426.747 527.469 430.372C534.747 432.184 541.9 434.644 549.18 436.371C547.564 424.543 543.618 413.347 541.677 401.642C536.612 371.098 554.756 343.976 572.346 320.76C580.022 310.629 592.213 295.402 604.099 290.829C609.125 288.895 614.689 288.555 619.849 287.078C626.728 285.109 633.286 282.368 640.43 281.414C663.046 278.396 689.009 286.547 706.949 300.338C724.803 314.063 735.612 332.751 740.647 354.526C742.587 362.917 743.739 371.536 747.084 379.53C749.457 385.2 752.998 390.292 756.213 395.503Q757.292 397.215 758.273 398.985Q759.254 400.755 760.136 402.576Q761.017 404.398 761.796 406.266Q762.574 408.134 763.248 410.042Q763.921 411.95 764.487 413.893Q765.053 415.836 765.51 417.807Q765.967 419.779 766.314 421.772Q766.66 423.766 766.895 425.776Q767.251 428.74 767.361 431.724Q767.47 434.707 767.332 437.69Q767.194 440.672 766.809 443.633Q766.424 446.593 765.796 449.512C763.937 458.434 759.425 467.693 761.089 476.954C763.002 487.594 770.434 495.881 776.078 504.716C785.709 519.792 788.138 536.279 788.965 553.78C788.608 557.365 788.294 560.962 787.849 564.537C795.337 569.524 802.314 574.894 808.487 581.488C836.647 611.574 846.128 656.881 853.969 696.014C857.202 712.148 859.303 728.412 861.645 744.685Q862.529 752.609 862.602 760.581C862.726 767.894 862.937 775.842 857.36 781.391C853.694 785.04 848.887 787.736 844.464 790.365C828.116 800.079 810.177 808.065 790.795 807.694C773.428 807.362 760.004 799.167 748.232 786.936C732.749 796.535 715.458 804.018 698.66 811.001C650.979 830.822 599.77 847.003 547.576 841.964C493.117 836.706 457.9 813.768 423.937 772.451C402.741 778.704 381.304 783.506 359.333 786.059C296.998 793.304 229.784 782.78 174.316 752.745C156.464 743.079 140.501 731.515 124.611 718.934C132.817 707.11 140.847 695.254 147.87 682.674Q152.896 673.754 157.32 664.52C161.985 654.597 166.14 643.433 173.161 634.912C176.156 631.278 179.647 628.58 183.402 625.765C180.982 601.177 183.839 575.025 189.355 551.017C195.178 533.723 199.893 525.425 211.605 511.286Q206.734 493.2 201.635 475.178C199.138 466.495 195.99 457.609 194.633 448.67C194.101 445.166 193.656 440.929 195.011 437.588C196.374 434.226 199 431.65 202.298 430.22C210.468 426.676 219.749 425.555 228.38 423.578C240.061 420.903 252.705 416.783 264.75 416.601C267.169 416.564 269.748 417.07 271.968 418.034C276.112 419.834 279.03 423.319 281.275 427.13C284.977 433.414 286.751 440.755 288.958 447.655C291.671 456.139 294.357 464.626 297.482 472.969C311.947 459.824 333.652 450.813 351.941 444.82Z"/>
	<path fill="#FEFEFE" transform="scale(0.911483 0.911483)" d="M391.654 763.301C392.313 763.325 393.124 763.303 393.775 763.476C395.094 763.826 395.588 764.498 396.299 765.581C396.535 767.427 396.067 768.554 395.387 770.259C393.968 769.805 392.887 769.502 391.788 768.428C390.999 766.73 391.42 765.088 391.654 763.301Z"/>
	<path fill="#FEFEFE" transform="scale(0.911483 0.911483)" d="M285.237 633.24C286.876 633.44 288.05 633.971 289.073 635.26C289.356 637.11 288.592 638.474 287.88 640.152C286.051 639.561 284.764 639.133 283.733 637.426C283.557 635.673 284.361 634.661 285.237 633.24Z"/>
	<path fill="#FEFEFE" transform="scale(0.911483 0.911483)" d="M330.278 745.198C330.516 745.258 330.757 745.309 330.992 745.378C332.607 745.848 333.405 746.321 334.233 747.79C334.36 749.627 333.567 750.98 332.808 752.613C332.558 752.508 332.307 752.406 332.059 752.298C330.515 751.621 329.299 750.906 328.673 749.274C328.615 747.594 329.425 746.561 330.278 745.198Z"/>
	<path fill="#FEFEFE" transform="scale(0.911483 0.911483)" d="M226.539 711.214C227.361 711.359 228.309 711.523 229.036 711.966C230.071 712.596 230.682 713.465 230.748 714.694C230.822 716.054 229.878 717.349 229.154 718.423C229.021 718.409 228.886 718.406 228.755 718.381C227.124 718.072 226.198 717.388 225.286 716.075C225.027 714.082 225.662 712.976 226.539 711.214Z"/>
	<path fill="#FEFEFE" transform="scale(0.911483 0.911483)" d="M157.318 690.161C157.563 690.268 157.81 690.372 158.054 690.483C159.797 691.277 160.623 692.215 161.299 693.986C161.202 695.796 160.453 696.707 159.407 698.142C158.737 697.931 157.919 697.729 157.296 697.379C156.087 696.701 155.72 695.948 155.261 694.706C155.409 692.764 156.216 691.725 157.318 690.161Z"/>
	<path fill="#FEFEFE" transform="scale(0.911483 0.911483)" d="M347.238 615.715C348.035 615.892 349.136 616.187 349.79 616.721C350.848 617.585 351.327 618.32 351.325 619.717C351.323 621.18 350.048 622.475 349.167 623.531C348.4 623.289 347.442 622.874 346.775 622.431C345.748 621.75 345.178 620.77 345.141 619.526C345.095 618.029 346.336 616.776 347.238 615.715Z"/>
	<path fill="#FEFEFE" transform="scale(0.911483 0.911483)" d="M339.71 516.173C340.709 516.373 341.78 516.747 342.567 517.44C343.596 518.345 344.049 519.106 344.115 520.502C344.195 522.18 342.944 523.419 341.934 524.598C341.114 524.507 340.091 524.159 339.445 523.599C338.495 522.775 338.144 522.204 337.927 520.988C337.57 518.991 338.629 517.696 339.71 516.173Z"/>
	<path fill="#FEFEFE" transform="scale(0.911483 0.911483)" d="M194.318 727.447C196.22 727.417 198.212 727.41 199.602 728.929C200.506 729.917 200.658 730.907 200.514 732.191C200.341 733.739 198.981 734.965 197.907 735.943C196.619 735.786 195.092 735.595 193.991 734.84C192.948 734.125 192.345 733.111 192.291 731.83C192.222 730.187 193.427 728.711 194.318 727.447Z"/>
	<path fill="#FEFEFE" transform="scale(0.911483 0.911483)" d="M441.404 572.249C442.449 572.539 443.549 572.791 444.397 573.516C445.426 574.397 446.102 575.316 446.173 576.716C446.283 578.894 445.018 580.202 443.688 581.732C442.676 581.655 441.428 581.516 440.51 581.051C439.226 580.4 438.759 579.801 438.221 578.503C438.22 575.445 439.364 574.408 441.404 572.249Z"/>
	<path fill="#FEFEFE" transform="scale(0.911483 0.911483)" d="M422.121 707.388C423.595 707.48 424.848 707.504 426.103 708.344C427.252 709.113 428.011 710.07 428.175 711.487C428.419 713.603 427.266 714.781 425.976 716.239C425.136 716.42 424.179 716.551 423.318 716.389C421.859 716.113 421.351 715.54 420.471 714.418C419.843 711.357 420.618 710.057 422.121 707.388Z"/>
	<path fill="#FEFEFE" transform="scale(0.911483 0.911483)" d="M354.927 688.433C356.662 688.441 358.509 688.448 360.071 689.32C361.191 689.945 361.944 690.795 362.194 692.092C362.508 693.724 361.32 695.19 360.462 696.452C358.94 696.739 357.125 697.003 355.674 696.277C354.531 695.705 353.672 695.013 353.356 693.716C352.854 691.657 353.874 690.079 354.927 688.433Z"/>
	<path fill="#FEFEFE" transform="scale(0.911483 0.911483)" d="M280.176 689.979C282.219 689.876 283.959 689.904 285.523 691.424Q285.667 691.563 285.794 691.716Q285.922 691.87 286.033 692.036Q286.144 692.203 286.236 692.38Q286.328 692.557 286.4 692.744Q286.473 692.93 286.525 693.123Q286.577 693.316 286.608 693.513Q286.639 693.71 286.649 693.91Q286.659 694.109 286.647 694.309C286.532 696.424 285.209 697.704 283.774 699.059C282.365 698.791 280.922 698.58 279.736 697.716C278.788 697.025 277.931 696.016 277.854 694.808C277.726 692.793 278.915 691.405 280.176 689.979Z"/>
	<path fill="#FEFEFE" transform="scale(0.911483 0.911483)" d="M484.311 542.402C485.856 542.427 487.234 542.582 488.486 543.591C489.46 544.376 490.005 545.414 490.026 546.674C490.06 548.796 489.019 550.13 487.592 551.542C486.034 551.591 484.61 551.574 483.281 550.66C482.168 549.894 481.511 548.917 481.447 547.529C481.335 545.087 482.684 543.959 484.311 542.402Z"/>
	<path fill="#FEFEFE" transform="scale(0.911483 0.911483)" d="M368.214 564.431C370.206 564.449 372.092 564.581 373.63 566.016C374.613 566.935 374.879 567.922 374.858 569.23C374.821 571.537 373.098 573.108 371.574 574.603C369.767 574.503 368.235 574.332 366.772 573.131C365.636 572.199 365.231 571.212 365.198 569.74C365.147 567.464 366.775 565.957 368.214 564.431Z"/>
	<path fill="#FEFEFE" transform="scale(0.911483 0.911483)" d="M571.083 481.809C571.748 483.739 571.47 485.8 571.356 487.801C570.755 498.366 571.701 508.007 573.224 518.455L572.989 518.507Q572.215 517.058 571.621 515.527C567.657 505.416 566.626 491.913 571.083 481.809Z"/>
	<path fill="#FEFEFE" transform="scale(0.911483 0.911483)" d="M408.894 643.872C410.513 643.968 412.232 643.99 413.652 644.88C414.762 645.577 415.583 646.612 415.762 647.936C416.113 650.545 414.411 652.613 412.804 654.428C411.143 654.406 409.642 654.274 408.243 653.276C407.101 652.461 406.385 651.326 406.263 649.903C406.048 647.407 407.369 645.68 408.894 643.872Z"/>
	<path fill="#FEFEFE" transform="scale(0.911483 0.911483)" d="M298.775 270.052C302.741 269.976 311.809 270.556 314.873 273.208L314.403 273.919C312.289 274.727 310.105 274.539 307.875 274.527C304.052 275.004 297.163 277.003 293.74 275.122L293.476 274.111C294.552 271.619 296.415 271.018 298.775 270.052Z"/>
	<path fill="#FEFEFE" transform="scale(0.911483 0.911483)" d="M558.242 537.339C563.031 542.979 549.489 559.667 547.205 565.319C544.248 572.636 545.118 579.148 548.39 586.141C549.089 587.634 550.071 589.015 550.063 590.684L549.339 590.67C548.892 590.195 548.468 589.73 548.069 589.212C530.601 566.524 555.6 556.838 558.242 537.339Z"/>
	<path fill="#FEFEFE" transform="scale(0.911483 0.911483)" d="M542.497 522.513C543.087 523.057 543.615 523.675 544.157 524.266C544.319 525.274 544.353 526.019 543.992 526.977C540.201 537.027 516.032 549.698 505.974 554.519L504.872 554.686L504.858 554.055C510.184 547.118 519.142 541.829 525.958 536.316C531.544 531.799 536.838 526.943 542.497 522.513Z"/>
	<path fill="#FEFEFE" transform="scale(0.911483 0.911483)" d="M436.231 242.924C441.381 243.894 445.522 246.38 449.087 250.208C455.304 256.885 458.818 265.072 458.45 274.221C457.845 273.989 457.879 274.024 457.207 273.641C449.978 269.515 438.429 251.366 436.231 242.924Z"/>
	<path fill="#FEFEFE" transform="scale(0.911483 0.911483)" d="M360.49 241.259L360.863 241.59C360.649 241.805 360.463 242.051 360.222 242.236C358.943 243.215 356.503 243.972 354.981 244.567C339.918 250.464 322.837 249.917 306.895 249.48L305.832 248.769C305.675 247.885 305.481 247.98 305.98 247.365C311.27 240.83 336.295 242.845 344.608 242.625C349.935 242.484 355.203 241.886 360.49 241.259Z"/>
	<path fill="#FEFEFE" transform="scale(0.911483 0.911483)" d="M447.936 224.259C451.569 224.572 453.861 225.768 456.524 228.304C465.155 236.521 470.163 252.209 470.624 263.837C470.066 263.604 469.529 263.375 468.997 263.088C461.897 259.254 450.29 232.33 447.936 224.259Z"/>
	<path fill="#FEFEFE" transform="scale(0.911483 0.911483)" d="M725.233 468.264C725.661 468.543 725.951 468.929 726.289 469.306C726.997 472.961 725.94 477.514 725.624 481.257C724.816 490.829 724.948 500.498 727.638 509.782C731.308 522.449 748.483 538.151 747.775 550.664C747.091 551.783 747.117 551.956 745.905 552.393C743.149 538.803 731.208 530.535 725.764 518.353C718.887 502.961 719.347 483.876 725.233 468.264Z"/>
	<path fill="#FEFEFE" transform="scale(0.911483 0.911483)" d="M170.325 650.63C173.855 652.175 176.44 655.499 179.301 658.006C187.845 665.49 198.897 671.381 210.085 673.571C214.115 674.36 218.699 674.898 222.807 674.645C226.664 674.408 232.89 671.771 236.544 672.944C237.679 673.308 237.776 673.834 238.13 674.827C237.887 676.4 237.483 677.407 236.699 678.786C236.568 678.835 236.436 678.886 236.304 678.933C222.884 683.684 206.867 681.379 194.251 675.432C186.681 671.863 172.249 664.224 169.494 655.742C168.828 653.69 169.372 652.462 170.325 650.63Z"/>
	<path fill="#FEFEFE" transform="scale(0.911483 0.911483)" d="M377.854 248.545L378.316 249.155C377.944 249.681 377.967 249.683 377.435 250.229C375.447 252.272 372.582 254.063 370.168 255.562C353.406 265.969 334.104 264.492 315.26 264.223C308.547 264.127 301.81 264.378 295.099 264.55C295.035 263.97 295.046 263.564 295.261 262.993C299.059 252.943 325.793 256.387 334.2 256.463C341.022 256.524 348.131 256.327 354.9 255.492C362.935 254.502 370.366 251.45 377.854 248.545Z"/>
	<path fill="#FEFEFE" transform="scale(0.911483 0.911483)" d="M564.159 428.908C565.56 430.489 566.397 433.344 567.137 435.316C575.946 458.784 555.431 477.473 557.348 497.813C558.319 508.119 565.248 514.93 568.708 524.202C574.623 540.053 564.843 555.981 558.508 570.118C558.086 571.368 557.782 572.535 556.877 573.535C555.571 569.2 564.951 546.71 565.197 538.234C565.591 524.671 554.745 515.875 551.819 503.45C547.706 485.979 558.305 469.306 561.564 452.629C563.092 444.812 562.56 436.755 564.159 428.908Z"/>
	<path fill="#FEFEFE" transform="scale(0.911483 0.911483)" d="M748.567 412.274C748.943 412.442 749.123 412.495 749.459 412.81C752.455 415.62 752.755 421.048 753.172 424.899C754.398 436.207 754.258 446.912 750.745 457.844C747.485 467.987 742.645 477.24 742.527 488.163C742.269 511.973 768.33 524.655 770.579 547.693C771.762 559.803 766.03 569.793 758.548 578.777C757.552 579.597 757.426 579.955 756.103 580.094C755.252 577.085 761.576 568.648 762.744 565.21C764.457 560.17 764.98 554.156 764.306 548.89C761.672 528.324 740.83 517.029 737.415 496.527C734.347 478.101 745.194 461.99 748.454 444.436C750.423 433.837 749.176 422.946 748.567 412.274Z"/>
	<path fill="#FEFEFE" transform="scale(0.911483 0.911483)" d="M253.806 630.34C253.904 630.433 254.019 630.512 254.099 630.62C256.585 633.992 257.589 644.444 258.662 648.903C266.547 681.679 275.83 713.73 274.908 747.824C269.198 729.179 265.824 710.528 261.664 691.523C259.159 680.079 255.796 668.663 253.785 657.143C252.687 666.109 250.581 675.09 249.125 684.026L239.83 739.394C238.257 748.629 237.242 758.866 234.442 767.8C233.924 769.454 233.293 771.087 231.682 771.928C230.615 771.798 230.043 771.708 229.338 770.746C227.818 768.671 228.17 764.855 228.377 762.408C229.05 754.456 231.226 746.239 232.529 738.321C236.945 711.483 242.543 684.81 246.802 657.973C247.89 651.118 248.258 644.3 248.596 637.379C250.097 634.873 251.999 632.629 253.806 630.34Z"/>
	<path fill="#EF6C01" transform="scale(0.911483 0.911483)" d="M297.482 472.969C311.947 459.824 333.652 450.813 351.941 444.82C356.403 449.468 361.316 453.268 366.436 457.145C366.098 460.326 366.009 463.409 366.043 466.607C344.15 475.03 324.245 482.029 304.127 494.745C301.804 487.582 299.157 480.307 297.482 472.969Z"/>
	<path fill="#FEFEFE" transform="scale(0.911483 0.911483)" d="M504.764 468.388C508.326 469.308 512.254 471.863 515.598 473.48C523.55 477.325 531.569 481.229 539.776 484.496L538.875 491.072C527.905 486.581 516.647 482.862 505.537 478.746C485.828 509.227 467.198 521.119 437.388 539.825C429.36 544.863 421.704 550.459 413.195 554.686C396.126 543.258 379.796 530.054 366.635 514.179C357.921 503.098 352.294 490.834 347.664 477.621L352.328 475.321C357.513 484.149 360.816 494.001 366.135 502.776C374.558 516.671 398.64 537.777 412.974 545.827L440.703 527.97C456.399 517.913 472.299 507.863 485.198 494.215C492.78 486.194 498.745 477.583 504.764 468.388Z"/>
	<path fill="#EF6C01" transform="scale(0.911483 0.911483)" d="M483.666 422.587C498.562 424.342 512.904 426.747 527.469 430.372C534.747 432.184 541.9 434.644 549.18 436.371C551.366 449.325 547.26 459.159 542.526 471.003C526.346 466.054 508.971 459.651 494.313 451.124C489.003 442.067 485.912 432.801 483.666 422.587Z"/>
	<path fill="#EF6C01" transform="scale(0.911483 0.911483)" d="M604.457 555.052C614.895 554.717 625.544 555.439 635.997 555.604C645.194 555.75 654.721 555.224 663.865 556.192C666.172 556.436 670.151 556.822 671.85 558.486C677.12 563.647 676.953 591.166 677.345 599.435C659.733 601.229 641.275 604.159 626.091 613.798C622.709 616.389 619.003 619.591 617.975 623.917C617.593 625.521 617.797 627.117 618.715 628.503C620.51 631.213 623.648 631.696 626.585 632.309C619.551 638.627 613.777 646.224 606.151 651.89C603.912 636.387 603.488 620.317 602.103 604.703C601.174 594.235 597.635 572.583 598.996 563.052C599.521 559.374 601.572 557.178 604.457 555.052Z"/>
	<path fill="#026850" transform="scale(0.911483 0.911483)" d="M615.919 563.239C622.319 563.298 632.02 562.559 637.578 566.047C638.854 566.848 639.849 567.94 640.034 569.501C640.276 571.55 638.992 574.007 637.653 575.494C635.759 577.599 633.023 577.517 630.42 577.716C624.781 578.209 615.977 578.831 610.766 576.54C608.972 575.751 607.507 574.519 606.898 572.605C605.866 569.355 607.571 566.339 609.047 563.554C611.329 563.366 613.631 563.328 615.919 563.239Z"/>
	<path fill="#EF6C01" transform="scale(0.911483 0.911483)" d="M261.659 429.61C264.578 429.431 267.116 429.38 269.905 430.457C272.401 431.421 274.365 433.037 275.838 435.263C279.735 441.151 281.552 449.12 283.484 455.846Q287.123 468.621 291.003 481.325C292.409 486 293.614 490.942 295.502 495.436C295.567 495.59 295.635 495.742 295.701 495.895C274.287 504.158 255.699 513.255 235.838 524.676C243.596 515.629 250.677 507.198 255.851 496.358Q256.258 495.236 256.604 494.094C257.442 491.279 257.449 486.947 255.778 484.414C254.904 483.089 253.851 482.317 252.246 482.134C241.999 480.968 223.678 501.118 215.644 507.478Q214.512 503.839 213.429 500.186C210.445 490.094 207.824 479.878 205.112 469.709C203.452 463.486 201.286 456.997 200.353 450.625C200.072 448.714 199.739 446.551 200.695 444.792C208.328 439.501 249.329 432.171 261.659 429.61Z"/>
	<path fill="#026850" transform="scale(0.911483 0.911483)" d="M214.662 442.551C216.048 442.435 217.554 442.404 218.895 442.811Q219.448 442.974 219.982 443.19Q220.516 443.407 221.026 443.675Q221.536 443.943 222.017 444.261Q222.498 444.578 222.945 444.942Q223.392 445.305 223.801 445.711Q224.21 446.118 224.577 446.562Q224.943 447.007 225.264 447.485Q225.585 447.964 225.857 448.472C227.348 451.275 227.688 454.52 226.696 457.546C225.536 461.08 223.453 462.349 220.247 463.934C219.047 464.022 217.705 464.062 216.521 463.819C213.515 463.202 210.639 461.035 209.094 458.412C207.546 455.784 207.018 452.607 207.825 449.65C208.871 445.82 211.367 444.312 214.662 442.551Z"/>
	<path fill="#FEFEFE" transform="scale(0.911483 0.911483)" d="M564.513 719.279C567.13 720.469 571.373 729.6 574.221 732.498C580.993 739.387 588.316 744.346 596.759 748.991Q574.773 790.76 548.9 830.24C537.346 828.2 526.031 825.976 514.63 823.177C501.25 819.126 488.813 813.055 476.615 806.31C481.431 801.207 487.455 796.876 492.748 792.246C499.841 786.042 506.571 779.431 513.641 773.208C514.171 772.742 514.572 772.541 515.252 772.368C516.393 772.837 517.4 773.344 518.663 773.291C521.54 770.292 522.592 766.031 525.372 762.917C538.411 748.316 552.058 734.429 564.513 719.279Z"/>
	<path fill="#FEFEFE" transform="scale(0.911483 0.911483)" d="M695.21 601.077C695.957 601.013 696.779 600.923 697.522 601.058C705.053 602.426 717.657 644.654 721.68 653.015C725.737 661.444 731.09 669.037 736.59 676.562C730.458 682.619 725.146 686.337 717.36 690.023C706.618 686.749 699.953 677.684 689.787 673.753C681.345 670.487 671.956 669.646 663.109 667.907C655.546 666.421 648.328 664.328 640.982 662.023C644.855 661.428 648.706 660.893 652.627 660.778C659.875 660.565 683.118 662.2 688.058 655.895C688.927 654.786 688.801 654.223 688.63 652.948C688.019 652.109 687.501 651.533 686.565 651.081C684.935 650.295 683.008 650.076 681.215 650.137C676.56 650.295 671.728 651.843 667.078 652.484C657.269 653.838 647.174 653.562 637.699 656.806C633.77 658.151 627.322 661.222 625.842 665.473C625.407 666.723 625.495 666.992 626 668.115C626.527 668.439 626.585 668.519 627.27 668.694C630.431 669.505 634.672 666.92 637.396 665.552C649.581 673.316 665.195 674.435 678.974 677.806C670.868 681.187 658.477 684.499 651.455 689.042C649.869 690.069 648.535 691.175 648.106 693.08C648.459 693.754 648.429 694.06 649.202 694.348C653.199 695.835 659.013 692.445 662.657 690.827C666.361 693.879 671.182 694.557 674.767 697.568C674.625 700.787 666.668 703.393 663.93 704.46C643.491 712.428 622.938 717.275 606.812 733.157Q603.177 737.304 599.656 741.549C587.285 733.854 578.861 724.861 570.124 713.398C580.621 699.396 578.325 681.397 582.335 665.207C585.294 653.263 590.811 641.757 596.649 630.979C597.438 636.366 597.593 641.764 598.569 647.139C597.468 649.063 596.256 651.062 595.739 653.238C595.319 655.004 595.428 657.179 596.563 658.675C597.522 659.94 599.052 660.45 600.585 660.431C606.591 660.356 614.743 653.202 618.802 649.128C622.286 649.804 625.686 650.238 629.25 649.908C635.571 649.322 642.242 647.225 648.397 645.688C656.969 643.547 665.229 641.759 674.011 640.671C678.14 640.16 685.848 638.863 688.52 635.489L688.342 634.7C679.598 630.341 635.973 641.754 624.065 643.362C637.382 633.44 645.621 628.637 662.189 626.568C667.768 625.871 673.569 625.49 678.929 623.672C680.678 623.078 682.041 622.511 682.893 620.825L682.403 619.785C680.921 618.786 679.47 618.557 677.705 618.67C672.434 619.008 666.943 620.455 661.736 621.377C649.234 623.59 637.172 625.431 624.438 625.3C639.48 609.552 657.708 608.773 677.986 605.276C683.816 604.271 689.514 602.653 695.21 601.077Z"/>
	<path fill="#FEFEFE" transform="scale(0.911483 0.911483)" d="M249.482 486.848C249.702 486.964 249.953 487.034 250.142 487.196C257.13 493.175 226.694 520.215 223.851 526.858C223.241 528.284 223.262 530.263 223.174 531.799C220.577 534.695 216.591 536.601 215.131 540.337C215.322 541.771 215.356 541.728 216.438 542.704C217.904 542.667 219.037 542.099 220.276 541.361C225.375 538.325 230.167 534.649 235.263 531.548C250.136 522.496 285.676 502.823 302.063 499.703C302.704 500.655 303.367 501.644 303.882 502.672C304.679 504.263 304.124 505.66 303.015 506.94C297.427 513.391 284.94 518.443 277.356 522.673C270.831 526.312 235.916 546.075 234.701 550.791C234.494 551.593 234.64 551.425 235.13 552.26C243.148 556.106 280.01 539.901 288.807 535.285C293.232 532.964 303.338 525.232 307.823 524.855C308.945 524.76 309.824 525.131 310.71 525.815C313.672 528.106 313.948 533.302 314.541 536.7C303.303 545.866 288.957 553.675 275.422 558.886C271.811 560.276 268.079 561.57 264.338 562.575C259.153 563.967 248.956 564.596 245.123 567.907C244.41 568.523 244.591 568.568 244.523 569.426C245.247 570.307 245.525 570.694 246.651 571.066C255.029 573.837 282.264 561.574 290.673 557.319C295.432 554.671 312.415 542.549 316.631 542.872C317.533 543.366 318.119 543.786 318.656 544.665C319.56 546.145 319.742 547.694 319.252 549.344C316.891 557.281 298.505 567.865 291.213 571.251C286.09 573.63 280.547 575.187 275.522 577.741C273.929 578.551 271.566 579.599 270.991 581.355C271.706 582.421 271.849 582.628 273.209 582.882C282.598 584.629 308.033 566.966 316.342 561.306C306.342 587.733 282.419 588.96 264.617 606.796C254.134 617.299 247.252 630.957 237.017 641.761C232.224 646.821 226.913 650.564 219.648 650.645C207.477 650.78 196.969 641.364 188.703 633.525C187.399 610.165 187.161 585.92 191.747 562.871C198.7 527.921 220.841 505.963 249.482 486.848Z"/>
	<path fill="#FEFEFE" transform="scale(0.911483 0.911483)" d="M690.655 685.504C696.342 685.211 702.743 690.973 707.188 694.221C710.006 706.125 714.685 717.208 719.409 728.452Q729.601 753.38 742.679 776.923C698.022 799.352 657.669 816.566 608.436 826.878Q597.013 829.098 585.43 830.206Q573.846 831.313 562.21 831.298C572.915 813.921 582.588 795.884 592.324 777.956C597.139 769.088 603.768 759.238 606.521 749.514L605.156 744.402C621.912 718.297 672.779 713.862 680.598 701.219C682.532 698.091 680.566 693.473 679.689 690.273C683.306 688.532 686.887 686.892 690.655 685.504Z"/>
	<path fill="#FEFEFE" transform="scale(0.911483 0.911483)" d="M615.075 298.994L615.234 299.139C615.39 300.24 614.735 300.459 613.971 301.214C611.313 303.842 608.302 306.092 605.61 308.689C598.641 315.411 590.881 325.363 588.688 334.923C598.431 343.361 617.157 347.515 629.309 352.601C637.364 355.973 645.155 360.358 652.558 364.979C666.899 373.931 679.326 385.21 690.731 397.646C694.022 401.234 696.027 406.043 699.737 409.209C703.732 410.191 714.025 399.519 719.081 396.829C720.314 397.135 721.94 397.416 723.004 398.117C724.742 399.261 725.568 402.788 725.898 404.698C727.529 414.144 725.054 427.412 719.408 435.244C714.946 441.432 710.308 439.53 703.968 440.757C702.348 441.07 700.965 442.003 700.104 443.408C697.797 447.177 697.077 452.194 695.512 456.31C693.351 461.99 689.846 467.701 686.512 472.76C675.139 490.016 659.812 501.632 639.435 505.882C639.167 505.928 638.899 505.978 638.63 506.021C630.669 507.308 623.427 506.334 616.801 501.456C606.043 493.535 586.344 474.143 581.213 462.049C578.708 456.144 577.942 449.071 577.626 442.709C577.067 431.446 578.182 420.218 576.463 409.017C579.981 407.298 583.535 406.057 587.325 405.097C587.224 409.083 586.746 413.539 589.291 416.924C590.411 418.414 591.654 419.264 593.506 419.559C598.638 418.706 598.265 412.393 601.103 409.43C601.256 409.555 601.402 409.689 601.561 409.806C602.8 410.726 603.701 410.675 605.187 410.517L605.703 409.793C605.561 408.978 605.446 408.222 605 407.507C602.78 403.948 596.847 402.009 592.893 401.145C586.452 399.738 581.23 402.221 575.924 405.518C575.578 400.047 575.113 394.691 574.301 389.263C582.248 386.908 588.705 388.47 596.66 388.841C599.827 388.989 603.123 388.873 605.563 386.631C605.825 385.9 606.103 385.608 605.845 384.825C605.3 383.176 603.806 382.117 602.347 381.304C594.313 376.826 582.871 378.241 574.439 380.612C574.511 364.5 579.874 350.896 586.834 336.721C586.312 334.162 586.229 332.088 587.077 329.567C591.294 317.038 603.368 304.783 615.075 298.994Z"/>
	<path fill="#026850" transform="scale(0.911483 0.911483)" d="M629.685 433.709C630.409 433.837 631.176 433.943 631.873 434.195C633.119 434.643 634.315 435.632 634.814 436.872C635.363 438.236 635.088 439.67 634.505 440.961C633.312 443.606 631.29 444.794 628.653 445.712C627.28 445.44 625.915 444.914 624.997 443.802C624.482 443.177 624.732 442.917 624.846 442.185C626.317 440.601 627.727 440.845 629.633 439.933C630.848 438.088 630.007 435.854 629.685 433.709Z"/>
	<path fill="#026850" transform="scale(0.911483 0.911483)" d="M719.949 405.279C720.155 405.376 720.383 405.437 720.568 405.571C721.378 406.162 721.951 406.925 721.831 407.967C721.476 411.062 717.982 413.98 715.9 416.067C717.097 416.991 718.449 417.935 719.208 419.273C719.975 420.622 720.255 422.251 719.805 423.757C718.815 427.065 715.931 428.789 713.147 430.42C712.476 429.473 712.146 428.612 711.775 427.516C711.967 425.461 713.406 423.937 714.585 422.315C714.175 421.925 713.773 421.522 713.357 421.137C712.819 420.641 712.26 420.169 711.756 419.637C710.812 418.639 710.656 417.732 710.747 416.395C711.027 412.274 717.048 407.958 719.949 405.279Z"/>
	<path fill="#026850" transform="scale(0.911483 0.911483)" d="M616.518 401.247C617.616 401.664 618.243 402.164 618.868 403.153C622.687 409.19 618.92 420.024 616.104 425.942C614.364 429.598 611.736 433.373 610.84 437.316C611.652 441.301 614.294 441.206 616.704 443.734C617.837 444.922 617.591 445.582 617.58 447.088C615.443 446.947 613.201 446.799 611.175 446.044C608.084 444.891 606.936 442.563 605.72 439.689C607.204 430.96 611.885 424.877 614.048 416.736C615.449 411.464 613.469 406.125 616.518 401.247Z"/>
	<path fill="#026850" transform="scale(0.911483 0.911483)" d="M648.599 377.594C655.262 377.112 661.985 376.885 668.148 379.937C670.183 380.945 673.572 382.982 674.12 385.385C674.284 386.102 673.896 386.309 673.509 386.854C670.036 388.092 666.52 386.587 663.116 385.652L660.767 385.301C653.912 384.227 647.744 386.662 640.976 386.878C639.709 386.919 638.761 386.89 637.936 385.765C637.182 384.736 637.304 384.124 637.493 382.98C639.75 379.561 644.807 378.439 648.599 377.594Z"/>
	<path fill="#026850" transform="scale(0.911483 0.911483)" d="M655.988 397.658C656.036 397.661 656.084 397.663 656.133 397.668C661.168 398.21 667.95 399.245 671.185 403.63C671.819 404.489 671.687 404.08 671.531 405.132L670.804 405.592C665.716 406.211 659.942 403.296 655.202 401.581C655.824 406.147 656.934 409.957 655.415 414.509C654.582 415.594 653.558 416.723 652.489 417.576C651.531 418.341 650.177 418.869 648.952 418.563C645.808 417.779 644.07 413.73 642.598 411.173C641.705 410.995 640.583 410.869 639.753 410.511C638.509 409.975 638.388 409.489 637.857 408.343C637.982 407.659 637.964 407.546 638.299 406.842C640.597 402.015 651.111 398.685 655.988 397.658Z"/>
	<path fill="#026850" transform="scale(0.911483 0.911483)" d="M651.519 453.236C651.804 453.269 652.458 453.635 652.73 453.761C653.586 454.918 653.713 455.797 653.615 457.198C653.117 464.29 648.226 470.363 643.101 474.925C638.007 479.458 631.485 483.201 624.439 482.643C618.634 482.183 614.655 479.131 611.1 474.8C607.714 469.881 603.818 466.351 599.509 462.257C599.634 460.953 599.682 460.632 600.674 459.653C602.486 457.863 606.022 456.964 608.435 456.537C614.116 455.531 620.108 455.785 625.863 455.403C634.428 454.834 642.943 453.737 651.519 453.236Z"/>
	<path fill="#FEFEFE" transform="scale(0.911483 0.911483)" d="M642.311 458.684C644.721 458.27 647.331 458.326 649.779 458.202C648.955 458.983 648.119 459.768 647.219 460.462C638.343 467.314 626.691 468.107 616.073 466.407C612.21 465.466 609.2 464.073 605.837 462.019C620.061 462.081 628.665 460.715 642.311 458.684Z"/>
	<path fill="#FEFEFE" transform="scale(0.911483 0.911483)" d="M545.434 542.046C545.478 542.089 545.539 542.12 545.565 542.175C547.01 545.15 536.782 555.272 534.851 558.036C533.721 559.653 532.875 561.707 532.193 563.561C529.667 570.421 530.456 576.974 533.629 583.424C536.782 589.831 544.551 600.346 552.005 602.009C554.871 602.648 556.739 600.028 558.909 598.729C561.35 600.035 562.953 602.233 564.913 604.132C567.078 606.229 569.447 608.383 572.669 608.159C576.027 607.926 579.087 604.174 580.878 601.677C580.024 593.753 575.693 586.422 576.738 578.25C577.923 568.975 585.811 562.376 592.713 556.941C591.12 575.46 595.089 599.769 596.086 618.894C586.736 634.518 577.302 653.21 574.494 671.296C572.551 683.813 573.383 697.462 568.075 709.144C566.734 708.763 564.67 707.973 563.279 708.121C561.244 708.337 559.803 709.35 558.315 710.687C551.573 716.744 545.898 724.625 539.927 731.462Q527.924 745.023 515.339 758.046C516.794 745.014 517.447 731.921 518.401 718.847C519.793 699.773 521.292 680.723 521.468 661.589C519.582 667.378 516.704 672.98 513.983 678.416C510.166 667.567 498.412 619.815 495.198 615.526L495.599 616.261L494.921 616.499C494.737 619.349 494.974 622.235 495.098 625.086C496.034 634.986 497.186 644.872 499.437 654.572C501.4 663.03 504.597 670.574 505.371 679.336C497.138 672.42 493.425 662.447 487.488 653.746C489.961 673.612 500.454 695.231 511.548 711.762C511.208 728.696 510.01 745.704 509.491 762.656C502.487 768.624 495.817 774.946 488.915 781.027C481.634 787.441 474.103 793.573 466.782 799.945Q456.618 791.028 447.301 781.23C444.122 777.886 441.308 774.031 437.837 771.001C440.016 739.636 444.597 707.705 450.692 676.864C453.547 662.42 456.74 648.175 460.608 633.969C468.518 604.923 476.399 584.661 502.629 567.085C510.932 561.521 519.946 557.542 528.653 552.725C534.455 549.515 539.933 545.74 545.434 542.046Z"/>
	<path fill="#FEFEFE" transform="scale(0.911483 0.911483)" d="M695.794 471.867C697.375 473.52 691.21 501.984 690.534 507.331C689.846 512.771 689.33 518.371 689.925 523.845C691.548 538.771 699.497 543.208 710.212 551.801C712.958 578.346 699.039 578.601 698.137 586.429C698.503 587.346 698.484 587.695 699.319 588.298C701.431 589.823 705.042 589.672 707.463 589.132C712.762 587.952 718.76 581.216 721.536 576.727Q722.56 575.062 723.407 573.301Q724.255 571.54 724.916 569.701Q725.578 567.862 726.048 565.965Q726.517 564.068 726.789 562.133C729.59 542.251 711.212 535.479 707.113 516.879C706.147 512.495 704.659 505.765 707.214 501.733C708.777 502.047 710.093 514.492 710.779 517.146C713.346 527.072 719.493 532.512 725.075 540.668C732.569 551.617 732.059 565.09 724.916 576.041C721.429 581.389 715.573 587.177 714.597 593.675C714.342 595.374 714.611 596.825 715.688 598.21C723.241 607.923 738.383 590.615 743.345 590.807L743.853 591.668C743.701 593.953 742.863 595.83 741.505 597.666C740.358 599.216 738.808 601.188 738.98 603.25C739.046 604.046 739.353 604.881 739.953 605.414C740.996 606.339 742.22 606.496 743.562 606.332C751.44 605.37 766.929 591.504 772.405 585.842C776.385 581.727 779.92 577.319 783.309 572.711C789.885 578.253 796.185 584.424 801.686 591.044C830.742 626.013 841.838 683.928 847.765 727.859C849.324 739.413 851.948 752.069 850.801 763.718C850.188 769.943 847.965 774.54 843.033 778.496C829.523 789.333 799.539 797.591 782.418 795.471C771.08 794.067 762.66 786.202 755.896 777.597C748.101 766.963 742.361 754.292 736.321 742.625C728.386 727.296 720.325 712.013 712.618 696.569C714.568 696.448 716.499 696.273 718.428 695.961C729.203 694.219 736.727 688.726 743.051 680.047C753.73 692.277 764.438 704.55 775.911 716.049C785.144 725.303 795 733.972 804.444 743.015C810.049 748.381 815.282 755.172 821.432 759.826C823.438 761.344 825.551 762.723 828.153 762.37C829.063 761.509 829.457 761.16 829.525 759.799C829.648 757.357 827.916 754.593 826.542 752.714C816.355 738.778 797.017 725.3 784.933 711.097C784.626 707.046 784.499 698.866 780.554 696.3C779.479 695.6 779.16 695.688 777.997 695.929C775.486 697.914 775.192 699.642 774.703 702.757C766.882 695.893 757.577 688.989 751.037 680.877C748.74 678.028 745.837 672.64 742.042 671.933C737.997 671.179 736.504 667.373 734.506 664.119C730.918 658.277 727.556 652.252 724.93 645.91C721.035 636.506 710.105 599.663 701.58 595.451C696.955 593.166 689.144 596.487 684.468 597.94C683.182 587.358 683.462 576.583 683.023 565.942C682.832 561.306 682.481 555.745 678.715 552.524C676.712 550.81 674.144 549.821 671.565 549.392C662.243 547.84 651.903 549.065 642.437 548.978C629.215 548.856 616.466 547.797 603.192 548.675C608.865 538.535 612.338 529.156 613.14 517.506C621.079 522.316 628.212 526.844 637.944 524.77C661.101 519.834 683.35 490.888 695.794 471.867Z"/>
	<path fill="#026850" transform="scale(0.911483 0.911483)" d="M776.903 637.816C778.169 637.993 779.57 638.131 780.613 638.943C785.532 642.775 784.749 659.036 785.122 665.303C788.323 660.515 790.858 652.917 795.502 649.553C796.999 649.191 797.719 649.262 799.171 649.6C800.151 650.447 800.455 650.69 800.716 652.035C801.647 656.838 796.24 665.075 793.844 669.198C791.174 674.857 787.715 684.799 782.625 688.525C781.553 689.31 780.949 689.437 779.662 689.29C777.514 687.5 777.278 684.417 777.035 681.789C776.369 674.609 773.605 646.213 774.943 640.774C775.211 639.685 776.196 638.658 776.903 637.816Z"/>
	<path fill="#FEFEFE" transform="scale(0.911483 0.911483)" d="M416.469 265.43C418.856 265.785 420.497 266.342 422.05 268.261C427.257 274.695 429.725 283.164 434.317 290.076C439.375 297.691 446.695 303.994 450.444 312.434C453.008 318.205 455.803 337.886 460.005 340.551C465.709 337.346 464.403 320.082 471.038 314.103C472.557 312.733 474.413 311.945 476.477 312.167C479.267 312.467 482.245 313.763 484.02 315.99C489.238 322.538 489.705 334.981 488.761 342.922C487.783 351.145 484.821 361.899 477.79 367.032C474.711 369.279 471.13 370.604 468.129 373.046C467.984 373.164 467.843 373.287 467.699 373.407C468.692 381.407 468.371 389.433 468.873 397.464C470.319 420.593 476.58 441.928 487.09 462.582C481.262 469.55 475.501 476.689 468.985 483.031C452.261 499.307 431.644 511.055 412.03 523.393C409.027 521.874 406.16 520.026 403.381 518.133C380.176 502.318 376.6 489.266 371.707 462.713C376.953 467.781 382.564 471.557 389.37 474.197C392.068 475.058 395.113 475.463 397.939 475.55C410.903 475.949 423.473 468.88 432.645 460.242C440.099 453.221 460.035 429.6 460.36 419.34C459.799 418.112 459.872 418.047 458.658 417.497C454.401 419.465 449.065 432.37 445.485 436.631C440.242 442.874 433.522 447.988 426.356 451.829C413.887 458.513 397.241 464.151 383.155 459.72C362.581 453.249 345.4 432.245 335.838 413.814Q331.449 405.26 328.279 396.183C323.5 382.137 320.371 367.262 317.263 352.769C315.198 343.136 312.724 333.416 312.248 323.541C311.924 316.822 312.581 309.879 314.68 303.466C316.492 297.933 319.828 291.744 325.671 289.763C332.94 287.299 342.782 291.184 350.208 292.087C358.831 293.135 367.954 292.531 376.201 289.712C392.535 284.128 402.05 272.679 416.469 265.43Z"/>
	<path fill="#026850" transform="scale(0.911483 0.911483)" d="M413.022 423.295L414.514 423.697L414.404 423.579C414.917 424.268 415.447 424.594 415.355 425.505C415.205 426.996 414.167 428.134 413.096 429.1C407.771 433.903 397.996 435.484 391.05 435.238C389.785 434.692 388.554 434.242 387.558 433.253C386.869 432.57 387.09 432.793 387.036 431.697C388.72 430.108 395.389 430.539 398 430.135C403.734 429.246 408.299 426.497 413.022 423.295Z"/>
	<path fill="#026850" transform="scale(0.911483 0.911483)" d="M476.354 319.365C477.087 319.428 477.975 319.436 478.676 319.645C479.903 320.009 480.009 320.197 480.508 321.267C479.808 324.12 476.615 325.769 475.648 328.576C474.728 331.249 474.139 334.664 475.515 337.299C476.043 338.31 476.225 338.309 477.251 338.592C479.632 336.848 479.173 333.516 481.541 332.002L482.365 332.228C482.917 333.152 482.795 332.811 483.092 333.903C484.692 339.78 480.979 345.326 478.197 350.23C476.839 352.01 475.068 353.683 473.179 354.905C472.14 355.576 471.501 355.795 470.285 355.507C469.801 354.688 469.87 355.021 469.81 354.093C469.543 349.986 473.42 346.37 475.976 343.65C473.973 342.439 472.371 341.197 470.708 339.548C470.397 337.561 470.091 335.578 470.084 333.561C470.063 327.55 472.161 323.466 476.354 319.365Z"/>
	<path fill="#026850" transform="scale(0.911483 0.911483)" d="M422.918 329.701C423.072 329.704 423.227 329.705 423.381 329.712C425.821 329.828 427.819 329.879 429.506 331.783L429.395 333.043C428.31 334.136 425.907 334.174 424.4 334.671C422.771 337.282 423.261 341.164 422.123 344.102C421.374 346.037 420.246 347.645 418.214 348.356C415.965 349.144 412.328 348.24 410.329 347.195C406.659 344.059 408.188 340.13 405.584 337.718C404.165 337.421 402.775 337.344 401.805 336.159C401.675 335.502 401.348 334.989 401.802 334.413C404.597 330.868 418.315 330.094 422.918 329.701Z"/>
	<path fill="#026850" transform="scale(0.911483 0.911483)" d="M350.689 343.096C351.995 342.982 353.875 342.972 355.132 343.344C356.467 343.739 356.6 344.105 357.202 345.235C357.208 346.889 356.265 347.853 355.322 349.107C355.666 352.597 356.188 355.38 354.438 358.601C353.427 360.46 351.829 362.193 349.66 362.609C346.43 363.229 343.862 361.517 341.502 359.581C339.842 357.584 338.564 355.298 336.535 353.641C335.597 353.763 334.499 353.996 333.56 353.942C332.103 353.859 331.914 353.577 331.01 352.566L331.209 351.384C335.241 346.472 344.636 344.352 350.689 343.096Z"/>
	<path fill="#026850" transform="scale(0.911483 0.911483)" d="M425.405 394.399C427.423 394.44 428.898 394.562 430.518 395.938C431.029 397.203 431.001 397.472 430.816 398.836C422.266 404.376 418.172 410.989 408.266 415.232C394.648 421.066 383.92 421.729 370.155 416.226C368.81 415.684 367.721 415.052 366.815 413.879C366.055 412.896 365.713 412.34 365.876 411.07C369.939 408.905 376.238 413.874 380.323 414.82C384.762 415.848 389.778 415.479 394.221 414.637C407.308 412.159 417.867 405.397 425.405 394.399Z"/>
	<path fill="#026850" transform="scale(0.911483 0.911483)" d="M363.212 339.559C364.043 339.842 364.943 340.138 365.668 340.65C372.184 345.252 368.897 376.171 369.657 383.91C369.912 386.506 370.457 389.858 372.833 391.42C377.694 394.617 385.926 389.158 390.992 388.37C393.809 387.932 397.643 388.669 400.219 387.594C401.712 386.971 403.013 385.357 403.34 383.742C403.576 382.579 403.513 381.737 402.739 380.789C400.66 378.245 395.375 377.948 392.378 377.328C390.936 377.03 389.636 376.788 388.807 375.518C389.044 375.128 389.158 374.878 389.55 374.573C392.063 372.614 395.928 373.337 398.862 373.568C401.212 374.241 403.619 375.074 405.21 377.045C406.898 379.135 408.436 382.679 407.966 385.419C407.62 387.429 406.231 388.924 404.527 389.94C400.027 392.624 394.357 392.453 389.404 393.736C385.781 394.674 382.283 396.311 378.6 396.981C376.683 397.33 374.634 397.436 372.732 396.943C370.107 396.262 367.984 394.371 366.641 392.056C365.342 389.818 364.902 387.101 364.665 384.559C363.818 375.468 365.059 366.32 364.563 357.228C364.263 351.722 361.907 344.888 363.212 339.559Z"/>
	<path fill="#026850" transform="scale(0.911483 0.911483)" d="M347.546 317.636C349.715 317.386 351.936 317.513 353.873 318.605C355.647 319.604 356.969 321.225 357.459 323.216Q357.548 323.586 357.599 323.964Q357.651 324.341 357.664 324.722Q357.678 325.103 357.653 325.483Q357.629 325.863 357.566 326.239Q357.504 326.615 357.404 326.983Q357.304 327.351 357.168 327.706Q357.032 328.062 356.861 328.403Q356.69 328.743 356.486 329.065C352.528 335.39 337.524 337.479 330.56 339.15C327.833 339.632 324.946 340.291 322.449 338.681C321.292 337.936 320.564 336.798 320.33 335.447C319.926 333.117 320.814 330.587 322.138 328.692C327.099 321.593 339.536 319.164 347.546 317.636Z"/>
	<path fill="#026850" transform="scale(0.911483 0.911483)" d="M422.838 301.681C424.229 301.85 425.596 302.057 426.851 302.725C428.901 303.816 430.543 305.679 431.143 307.941C432.067 311.431 430.966 313.855 429.254 316.854C418.715 322.316 403.61 324.918 391.74 325.605C390.275 325.558 388.722 325.168 387.478 324.377C385.69 323.24 383.135 320.358 382.827 318.169C382.603 316.58 382.983 315.241 383.992 313.987C390.543 305.849 412.566 302.87 422.838 301.681Z"/>
</svg>
